<mxfile host="app.diagrams.net" modified="2021-08-16T01:15:39.640Z" agent="5.0 (Windows)" etag="7S5UidxyOGEoSGWicY37" version="14.9.5" type="github">
  <diagram id="76rNVgISqCWRjO_PS396" name="第 1 页">
    <mxGraphModel dx="1960" dy="676" grid="1" gridSize="10" guides="1" tooltips="1" connect="1" arrows="1" fold="1" page="1" pageScale="1" pageWidth="827" pageHeight="1169" math="0" shadow="0">
      <root>
        <mxCell id="0" />
        <mxCell id="1" parent="0" />
        <mxCell id="X4f5I5SqVCt4vAeTWYcf-1" value="&lt;div&gt;并发问题&lt;/div&gt;&lt;div&gt;常使用的架构&lt;br&gt;&lt;/div&gt;" style="rounded=1;whiteSpace=wrap;html=1;" vertex="1" parent="1">
          <mxGeometry x="294" y="110" width="120" height="60" as="geometry" />
        </mxCell>
        <mxCell id="X4f5I5SqVCt4vAeTWYcf-4" value="" style="edgeStyle=orthogonalEdgeStyle;rounded=0;orthogonalLoop=1;jettySize=auto;html=1;" edge="1" parent="1" source="X4f5I5SqVCt4vAeTWYcf-2" target="X4f5I5SqVCt4vAeTWYcf-3">
          <mxGeometry relative="1" as="geometry" />
        </mxCell>
        <mxCell id="X4f5I5SqVCt4vAeTWYcf-2" value="nginx负载均衡" style="rounded=1;whiteSpace=wrap;html=1;" vertex="1" parent="1">
          <mxGeometry x="-6" y="230" width="120" height="60" as="geometry" />
        </mxCell>
        <mxCell id="X4f5I5SqVCt4vAeTWYcf-6" value="" style="edgeStyle=orthogonalEdgeStyle;rounded=0;orthogonalLoop=1;jettySize=auto;html=1;" edge="1" parent="1" source="X4f5I5SqVCt4vAeTWYcf-3" target="X4f5I5SqVCt4vAeTWYcf-5">
          <mxGeometry relative="1" as="geometry" />
        </mxCell>
        <mxCell id="X4f5I5SqVCt4vAeTWYcf-3" value="redis" style="rounded=1;whiteSpace=wrap;html=1;" vertex="1" parent="1">
          <mxGeometry x="194" y="230" width="120" height="60" as="geometry" />
        </mxCell>
        <mxCell id="X4f5I5SqVCt4vAeTWYcf-8" value="" style="edgeStyle=orthogonalEdgeStyle;rounded=0;orthogonalLoop=1;jettySize=auto;html=1;" edge="1" parent="1" source="X4f5I5SqVCt4vAeTWYcf-5" target="X4f5I5SqVCt4vAeTWYcf-7">
          <mxGeometry relative="1" as="geometry" />
        </mxCell>
        <mxCell id="X4f5I5SqVCt4vAeTWYcf-5" value="mq(kafka)" style="rounded=1;whiteSpace=wrap;html=1;" vertex="1" parent="1">
          <mxGeometry x="394" y="230" width="120" height="60" as="geometry" />
        </mxCell>
        <mxCell id="X4f5I5SqVCt4vAeTWYcf-7" value="db数据库" style="rounded=1;whiteSpace=wrap;html=1;" vertex="1" parent="1">
          <mxGeometry x="594" y="230" width="120" height="60" as="geometry" />
        </mxCell>
        <mxCell id="X4f5I5SqVCt4vAeTWYcf-18" style="edgeStyle=entityRelationEdgeStyle;rounded=0;orthogonalLoop=1;jettySize=auto;html=1;exitX=1;exitY=0.5;exitDx=0;exitDy=0;entryX=0;entryY=0.25;entryDx=0;entryDy=0;" edge="1" parent="1" source="X4f5I5SqVCt4vAeTWYcf-9" target="X4f5I5SqVCt4vAeTWYcf-13">
          <mxGeometry relative="1" as="geometry" />
        </mxCell>
        <mxCell id="X4f5I5SqVCt4vAeTWYcf-9" value="&lt;div&gt;客户端&lt;/div&gt;" style="ellipse;whiteSpace=wrap;html=1;" vertex="1" parent="1">
          <mxGeometry x="-410" y="430" width="120" height="80" as="geometry" />
        </mxCell>
        <mxCell id="X4f5I5SqVCt4vAeTWYcf-11" value="&lt;div&gt;nginx&lt;/div&gt;&lt;div&gt;静态分离&lt;br&gt;&lt;/div&gt;" style="shape=hexagon;perimeter=hexagonPerimeter2;whiteSpace=wrap;html=1;fixedSize=1;" vertex="1" parent="1">
          <mxGeometry x="40" y="370" width="120" height="80" as="geometry" />
        </mxCell>
        <mxCell id="X4f5I5SqVCt4vAeTWYcf-20" style="edgeStyle=entityRelationEdgeStyle;rounded=0;orthogonalLoop=1;jettySize=auto;html=1;exitX=1;exitY=0.25;exitDx=0;exitDy=0;entryX=0;entryY=0.5;entryDx=0;entryDy=0;" edge="1" parent="1" source="X4f5I5SqVCt4vAeTWYcf-13" target="X4f5I5SqVCt4vAeTWYcf-11">
          <mxGeometry relative="1" as="geometry" />
        </mxCell>
        <mxCell id="X4f5I5SqVCt4vAeTWYcf-21" style="edgeStyle=entityRelationEdgeStyle;rounded=0;orthogonalLoop=1;jettySize=auto;html=1;exitX=1;exitY=0.5;exitDx=0;exitDy=0;entryX=0;entryY=0.5;entryDx=0;entryDy=0;" edge="1" parent="1" source="X4f5I5SqVCt4vAeTWYcf-13" target="X4f5I5SqVCt4vAeTWYcf-14">
          <mxGeometry relative="1" as="geometry" />
        </mxCell>
        <mxCell id="X4f5I5SqVCt4vAeTWYcf-22" style="edgeStyle=entityRelationEdgeStyle;rounded=0;orthogonalLoop=1;jettySize=auto;html=1;exitX=1;exitY=0.75;exitDx=0;exitDy=0;entryX=0;entryY=0.5;entryDx=0;entryDy=0;" edge="1" parent="1" source="X4f5I5SqVCt4vAeTWYcf-13" target="X4f5I5SqVCt4vAeTWYcf-15">
          <mxGeometry relative="1" as="geometry" />
        </mxCell>
        <mxCell id="X4f5I5SqVCt4vAeTWYcf-13" value="LVS四层负载均衡，用于触发规则" style="shape=process;whiteSpace=wrap;html=1;backgroundOutline=1;" vertex="1" parent="1">
          <mxGeometry x="-190" y="500" width="120" height="60" as="geometry" />
        </mxCell>
        <mxCell id="X4f5I5SqVCt4vAeTWYcf-14" value="服务器端" style="shape=hexagon;perimeter=hexagonPerimeter2;whiteSpace=wrap;html=1;fixedSize=1;" vertex="1" parent="1">
          <mxGeometry x="40" y="490" width="120" height="80" as="geometry" />
        </mxCell>
        <mxCell id="X4f5I5SqVCt4vAeTWYcf-15" value="服务器端" style="shape=hexagon;perimeter=hexagonPerimeter2;whiteSpace=wrap;html=1;fixedSize=1;" vertex="1" parent="1">
          <mxGeometry x="40" y="620" width="120" height="80" as="geometry" />
        </mxCell>
        <mxCell id="X4f5I5SqVCt4vAeTWYcf-19" style="edgeStyle=entityRelationEdgeStyle;rounded=0;orthogonalLoop=1;jettySize=auto;html=1;exitX=1;exitY=0.5;exitDx=0;exitDy=0;entryX=0;entryY=0.75;entryDx=0;entryDy=0;" edge="1" parent="1" source="X4f5I5SqVCt4vAeTWYcf-16" target="X4f5I5SqVCt4vAeTWYcf-13">
          <mxGeometry relative="1" as="geometry" />
        </mxCell>
        <mxCell id="X4f5I5SqVCt4vAeTWYcf-16" value="&lt;div&gt;客户端&lt;/div&gt;" style="ellipse;whiteSpace=wrap;html=1;" vertex="1" parent="1">
          <mxGeometry x="-410" y="570" width="120" height="80" as="geometry" />
        </mxCell>
        <mxCell id="X4f5I5SqVCt4vAeTWYcf-23" value="四层负载均衡没有三次握手" style="shape=note;whiteSpace=wrap;html=1;backgroundOutline=1;darkOpacity=0.05;" vertex="1" parent="1">
          <mxGeometry x="-180" y="350" width="80" height="100" as="geometry" />
        </mxCell>
        <mxCell id="X4f5I5SqVCt4vAeTWYcf-24" value="&lt;div&gt;tomcat&lt;/div&gt;&lt;div&gt;动态处理&lt;/div&gt;" style="shape=step;perimeter=stepPerimeter;whiteSpace=wrap;html=1;fixedSize=1;" vertex="1" parent="1">
          <mxGeometry x="140" y="370" width="90" height="80" as="geometry" />
        </mxCell>
        <mxCell id="X4f5I5SqVCt4vAeTWYcf-25" value="" style="shape=step;perimeter=stepPerimeter;whiteSpace=wrap;html=1;fixedSize=1;" vertex="1" parent="1">
          <mxGeometry x="140" y="490" width="90" height="80" as="geometry" />
        </mxCell>
        <mxCell id="X4f5I5SqVCt4vAeTWYcf-26" value="" style="shape=step;perimeter=stepPerimeter;whiteSpace=wrap;html=1;fixedSize=1;" vertex="1" parent="1">
          <mxGeometry x="140" y="620" width="90" height="80" as="geometry" />
        </mxCell>
        <mxCell id="X4f5I5SqVCt4vAeTWYcf-28" value="模型一" style="swimlane;fillColor=none;" vertex="1" parent="1">
          <mxGeometry x="-560" y="740" width="940" height="500" as="geometry">
            <mxRectangle x="-330" y="730" width="70" height="23" as="alternateBounds" />
          </mxGeometry>
        </mxCell>
        <mxCell id="X4f5I5SqVCt4vAeTWYcf-71" value="" style="rounded=1;whiteSpace=wrap;html=1;labelBackgroundColor=#99FF99;fontColor=#000000;dashed=1;strokeColor=#994C00;fillColor=#E6FFCC;" vertex="1" parent="X4f5I5SqVCt4vAeTWYcf-28">
          <mxGeometry x="230" y="180" width="120" height="60" as="geometry" />
        </mxCell>
        <mxCell id="X4f5I5SqVCt4vAeTWYcf-36" style="edgeStyle=entityRelationEdgeStyle;rounded=0;orthogonalLoop=1;jettySize=auto;html=1;exitX=1;exitY=0.5;exitDx=0;exitDy=0;entryX=0;entryY=0.5;entryDx=0;entryDy=0;" edge="1" parent="X4f5I5SqVCt4vAeTWYcf-28" source="X4f5I5SqVCt4vAeTWYcf-33" target="X4f5I5SqVCt4vAeTWYcf-34">
          <mxGeometry relative="1" as="geometry" />
        </mxCell>
        <mxCell id="X4f5I5SqVCt4vAeTWYcf-43" value="&lt;div&gt;网络io(socket io)&lt;/div&gt;&lt;div&gt;三次握手七层网络&lt;/div&gt;&lt;div&gt;http协议，解析url&lt;/div&gt;" style="edgeLabel;html=1;align=center;verticalAlign=middle;resizable=0;points=[];labelBackgroundColor=#ffffff;" vertex="1" connectable="0" parent="X4f5I5SqVCt4vAeTWYcf-36">
          <mxGeometry x="-0.0133" y="-1" relative="1" as="geometry">
            <mxPoint x="2" y="-1" as="offset" />
          </mxGeometry>
        </mxCell>
        <mxCell id="X4f5I5SqVCt4vAeTWYcf-69" style="edgeStyle=entityRelationEdgeStyle;rounded=0;orthogonalLoop=1;jettySize=auto;html=1;exitX=1;exitY=0;exitDx=0;exitDy=0;entryX=0;entryY=0.25;entryDx=0;entryDy=0;labelBackgroundColor=none;fontColor=#000000;strokeColor=#33FF99;strokeWidth=1;" edge="1" parent="X4f5I5SqVCt4vAeTWYcf-28" source="X4f5I5SqVCt4vAeTWYcf-33" target="X4f5I5SqVCt4vAeTWYcf-34">
          <mxGeometry relative="1" as="geometry" />
        </mxCell>
        <mxCell id="X4f5I5SqVCt4vAeTWYcf-70" style="edgeStyle=entityRelationEdgeStyle;rounded=0;orthogonalLoop=1;jettySize=auto;html=1;exitX=1;exitY=1;exitDx=0;exitDy=0;entryX=0;entryY=0.75;entryDx=0;entryDy=0;labelBackgroundColor=none;fontColor=#000000;strokeWidth=1;strokeColor=#0000CC;" edge="1" parent="X4f5I5SqVCt4vAeTWYcf-28" source="X4f5I5SqVCt4vAeTWYcf-33" target="X4f5I5SqVCt4vAeTWYcf-34">
          <mxGeometry relative="1" as="geometry" />
        </mxCell>
        <mxCell id="X4f5I5SqVCt4vAeTWYcf-33" value="&lt;div&gt;客户端&lt;/div&gt;" style="ellipse;whiteSpace=wrap;html=1;" vertex="1" parent="X4f5I5SqVCt4vAeTWYcf-28">
          <mxGeometry x="70" y="170" width="120" height="80" as="geometry" />
        </mxCell>
        <mxCell id="X4f5I5SqVCt4vAeTWYcf-68" style="edgeStyle=entityRelationEdgeStyle;rounded=0;orthogonalLoop=1;jettySize=auto;html=1;exitX=1;exitY=0.5;exitDx=0;exitDy=0;entryX=0;entryY=0.5;entryDx=0;entryDy=0;labelBackgroundColor=none;fontColor=#000000;strokeWidth=1;" edge="1" parent="X4f5I5SqVCt4vAeTWYcf-28" source="X4f5I5SqVCt4vAeTWYcf-34" target="X4f5I5SqVCt4vAeTWYcf-67">
          <mxGeometry relative="1" as="geometry" />
        </mxCell>
        <mxCell id="X4f5I5SqVCt4vAeTWYcf-34" value="&lt;div&gt;nginx 服务器&lt;br&gt;&lt;/div&gt;&lt;div&gt;（静态分离&lt;/div&gt;&lt;div&gt;反向代理）&lt;br&gt;&lt;/div&gt;" style="shape=hexagon;perimeter=hexagonPerimeter2;whiteSpace=wrap;html=1;fixedSize=1;" vertex="1" parent="X4f5I5SqVCt4vAeTWYcf-28">
          <mxGeometry x="390" y="170" width="120" height="80" as="geometry" />
        </mxCell>
        <mxCell id="X4f5I5SqVCt4vAeTWYcf-35" value="&lt;div&gt;tomcat&lt;/div&gt;&lt;div&gt;动态处理&lt;/div&gt;&lt;div&gt;[ip1]&lt;br&gt;&lt;/div&gt;" style="shape=step;perimeter=stepPerimeter;whiteSpace=wrap;html=1;fixedSize=1;" vertex="1" parent="X4f5I5SqVCt4vAeTWYcf-28">
          <mxGeometry x="620" y="70" width="90" height="80" as="geometry" />
        </mxCell>
        <mxCell id="X4f5I5SqVCt4vAeTWYcf-38" value="&lt;div&gt;磁盘&lt;/div&gt;静态数据" style="shape=cylinder3;whiteSpace=wrap;html=1;boundedLbl=1;backgroundOutline=1;size=15;" vertex="1" parent="X4f5I5SqVCt4vAeTWYcf-28">
          <mxGeometry x="635" y="270" width="60" height="80" as="geometry" />
        </mxCell>
        <mxCell id="X4f5I5SqVCt4vAeTWYcf-39" style="edgeStyle=entityRelationEdgeStyle;rounded=0;orthogonalLoop=1;jettySize=auto;html=1;exitX=1;exitY=0.75;exitDx=0;exitDy=0;entryX=0;entryY=0.5;entryDx=0;entryDy=0;entryPerimeter=0;strokeColor=#0000CC;" edge="1" parent="X4f5I5SqVCt4vAeTWYcf-28" source="X4f5I5SqVCt4vAeTWYcf-34" target="X4f5I5SqVCt4vAeTWYcf-38">
          <mxGeometry relative="1" as="geometry" />
        </mxCell>
        <mxCell id="X4f5I5SqVCt4vAeTWYcf-40" value="磁盘io" style="edgeLabel;html=1;align=center;verticalAlign=middle;resizable=0;points=[];" vertex="1" connectable="0" parent="X4f5I5SqVCt4vAeTWYcf-39">
          <mxGeometry x="0.0878" y="2" relative="1" as="geometry">
            <mxPoint as="offset" />
          </mxGeometry>
        </mxCell>
        <mxCell id="X4f5I5SqVCt4vAeTWYcf-46" value="官方数据nginx处理并发数据5w" style="shape=callout;whiteSpace=wrap;html=1;perimeter=calloutPerimeter;position2=0.46;size=10;position=0.46;" vertex="1" parent="X4f5I5SqVCt4vAeTWYcf-28">
          <mxGeometry x="390" y="120" width="130" height="40" as="geometry" />
        </mxCell>
        <mxCell id="X4f5I5SqVCt4vAeTWYcf-54" value="" style="curved=1;endArrow=classic;html=1;fontColor=#FF33FF;strokeColor=#FF0000;" edge="1" parent="X4f5I5SqVCt4vAeTWYcf-28">
          <mxGeometry width="50" height="50" relative="1" as="geometry">
            <mxPoint x="210" y="190" as="sourcePoint" />
            <mxPoint x="210" y="250" as="targetPoint" />
            <Array as="points">
              <mxPoint x="390" y="190" />
              <mxPoint x="560" y="240" />
              <mxPoint x="730" y="320" />
              <mxPoint x="570" y="300" />
              <mxPoint x="420" y="270" />
            </Array>
          </mxGeometry>
        </mxCell>
        <mxCell id="X4f5I5SqVCt4vAeTWYcf-56" value="&lt;font color=&quot;#FF0000&quot;&gt;静态返回&lt;/font&gt;" style="edgeLabel;html=1;align=center;verticalAlign=middle;resizable=0;points=[];fontColor=#FF33FF;labelBorderColor=#000000;labelBackgroundColor=#66FFB3;" vertex="1" connectable="0" parent="X4f5I5SqVCt4vAeTWYcf-54">
          <mxGeometry x="0.5197" relative="1" as="geometry">
            <mxPoint as="offset" />
          </mxGeometry>
        </mxCell>
        <mxCell id="X4f5I5SqVCt4vAeTWYcf-57" value="&lt;span style=&quot;&quot;&gt;proxy&lt;/span&gt;" style="shape=or;whiteSpace=wrap;html=1;labelBackgroundColor=none;" vertex="1" parent="X4f5I5SqVCt4vAeTWYcf-28">
          <mxGeometry x="420" y="350" width="60" height="80" as="geometry" />
        </mxCell>
        <mxCell id="X4f5I5SqVCt4vAeTWYcf-58" value="google" style="ellipse;shape=cloud;whiteSpace=wrap;html=1;labelBackgroundColor=none;" vertex="1" parent="X4f5I5SqVCt4vAeTWYcf-28">
          <mxGeometry x="585" y="350" width="120" height="80" as="geometry" />
        </mxCell>
        <mxCell id="X4f5I5SqVCt4vAeTWYcf-62" value="" style="endArrow=classic;startArrow=classic;html=1;fontColor=#000000;strokeColor=#00FFFF;strokeWidth=2;entryX=0.092;entryY=0.563;entryDx=0;entryDy=0;entryPerimeter=0;exitX=1;exitY=0.5;exitDx=0;exitDy=0;exitPerimeter=0;" edge="1" parent="X4f5I5SqVCt4vAeTWYcf-28" source="X4f5I5SqVCt4vAeTWYcf-57" target="X4f5I5SqVCt4vAeTWYcf-58">
          <mxGeometry width="50" height="50" relative="1" as="geometry">
            <mxPoint x="490" y="390" as="sourcePoint" />
            <mxPoint x="610" y="394" as="targetPoint" />
          </mxGeometry>
        </mxCell>
        <mxCell id="X4f5I5SqVCt4vAeTWYcf-63" value="" style="endArrow=classic;startArrow=classic;html=1;fontColor=#000000;strokeColor=#00FFFF;strokeWidth=2;exitX=0.5;exitY=1;exitDx=0;exitDy=0;entryX=0;entryY=0.5;entryDx=0;entryDy=0;entryPerimeter=0;" edge="1" parent="X4f5I5SqVCt4vAeTWYcf-28" source="X4f5I5SqVCt4vAeTWYcf-33" target="X4f5I5SqVCt4vAeTWYcf-57">
          <mxGeometry width="50" height="50" relative="1" as="geometry">
            <mxPoint x="360" y="220" as="sourcePoint" />
            <mxPoint x="410" y="170" as="targetPoint" />
            <Array as="points" />
          </mxGeometry>
        </mxCell>
        <mxCell id="X4f5I5SqVCt4vAeTWYcf-64" value="" style="curved=1;endArrow=classic;html=1;strokeWidth=1;strokeColor=#33FF99;labelBackgroundColor=none;" edge="1" parent="X4f5I5SqVCt4vAeTWYcf-28">
          <mxGeometry width="50" height="50" relative="1" as="geometry">
            <mxPoint x="190" y="260" as="sourcePoint" />
            <mxPoint x="140" y="290" as="targetPoint" />
            <Array as="points">
              <mxPoint x="360" y="320" />
              <mxPoint x="440" y="340" />
              <mxPoint x="690" y="390" />
              <mxPoint x="380" y="470" />
            </Array>
          </mxGeometry>
        </mxCell>
        <mxCell id="X4f5I5SqVCt4vAeTWYcf-65" value="&lt;span style=&quot;background-color: rgb(255 , 255 , 255)&quot;&gt;正向代理&lt;/span&gt;" style="edgeLabel;html=1;align=center;verticalAlign=middle;resizable=0;points=[];fontColor=#FF0000;labelBackgroundColor=#99FF99;" vertex="1" connectable="0" parent="X4f5I5SqVCt4vAeTWYcf-64">
          <mxGeometry x="-0.5641" relative="1" as="geometry">
            <mxPoint as="offset" />
          </mxGeometry>
        </mxCell>
        <mxCell id="X4f5I5SqVCt4vAeTWYcf-66" value="&lt;div&gt;&lt;span&gt;nginx功能：&lt;/span&gt;&lt;/div&gt;&lt;div align=&quot;left&quot;&gt;&lt;span&gt;&lt;font color=&quot;#0000CC&quot;&gt;&lt;b&gt;动静分离&lt;/b&gt;&lt;/font&gt;：客户端若只访问静态请求则不需要访问tomcat，直接由neinx返回数据&lt;br&gt;&lt;/span&gt;&lt;/div&gt;&lt;div align=&quot;left&quot;&gt;&lt;span&gt;&lt;font color=&quot;#0000CC&quot;&gt;&lt;b&gt;负载均衡&lt;/b&gt;&lt;/font&gt;：当大量的客户访问tomcat的ip1(服务器集群)时为负载均衡，自动分配任务到具体那台服务器主机&lt;/span&gt;&lt;/div&gt;&lt;div align=&quot;left&quot;&gt;&lt;span&gt;&lt;font color=&quot;#0000CC&quot;&gt;&lt;b&gt;动态代理&lt;/b&gt;&lt;/font&gt;：根据客户的url解析处ip地址，由url转发具体的ip地址的服务器&lt;br&gt;&lt;/span&gt;&lt;/div&gt;&lt;div&gt;&lt;span&gt;&lt;br&gt;&lt;/span&gt;&lt;/div&gt;" style="shape=note;whiteSpace=wrap;html=1;backgroundOutline=1;darkOpacity=0.05;labelBackgroundColor=none;fillColor=#fff2cc;strokeColor=#d6b656;gradientColor=#ffd966;" vertex="1" parent="X4f5I5SqVCt4vAeTWYcf-28">
          <mxGeometry x="730" y="70" width="180" height="180" as="geometry" />
        </mxCell>
        <mxCell id="X4f5I5SqVCt4vAeTWYcf-67" value="&lt;div&gt;tomcat&lt;/div&gt;&lt;div&gt;动态处理&lt;/div&gt;&lt;div&gt;[ip2]&lt;br&gt;&lt;/div&gt;" style="shape=step;perimeter=stepPerimeter;whiteSpace=wrap;html=1;fixedSize=1;" vertex="1" parent="X4f5I5SqVCt4vAeTWYcf-28">
          <mxGeometry x="620" y="170" width="90" height="80" as="geometry" />
        </mxCell>
        <mxCell id="X4f5I5SqVCt4vAeTWYcf-37" style="edgeStyle=entityRelationEdgeStyle;rounded=0;orthogonalLoop=1;jettySize=auto;html=1;exitX=1;exitY=0.25;exitDx=0;exitDy=0;strokeColor=#33FF99;" edge="1" parent="X4f5I5SqVCt4vAeTWYcf-28" source="X4f5I5SqVCt4vAeTWYcf-34" target="X4f5I5SqVCt4vAeTWYcf-35">
          <mxGeometry relative="1" as="geometry">
            <mxPoint x="501.42857142857156" y="191.42714285714266" as="sourcePoint" />
            <mxPoint x="640" y="108.57" as="targetPoint" />
          </mxGeometry>
        </mxCell>
        <mxCell id="X4f5I5SqVCt4vAeTWYcf-42" value="&lt;div&gt;网络io(socket io)&lt;/div&gt;&lt;div&gt;&lt;div&gt;三次握手七层网络&lt;/div&gt;&lt;div&gt;http协议,访问ip&lt;br&gt;&lt;/div&gt;&lt;/div&gt;" style="edgeLabel;html=1;align=center;verticalAlign=middle;resizable=0;points=[];" vertex="1" connectable="0" parent="X4f5I5SqVCt4vAeTWYcf-37">
          <mxGeometry x="0.1288" relative="1" as="geometry">
            <mxPoint x="-8" y="57" as="offset" />
          </mxGeometry>
        </mxCell>
        <mxCell id="X4f5I5SqVCt4vAeTWYcf-49" value="" style="curved=1;endArrow=classic;html=1;strokeColor=#FF33FF;" edge="1" parent="1">
          <mxGeometry width="50" height="50" relative="1" as="geometry">
            <mxPoint x="-380" y="930" as="sourcePoint" />
            <mxPoint x="-380" y="1020" as="targetPoint" />
            <Array as="points">
              <mxPoint x="-10" y="890" />
              <mxPoint x="70" y="880" />
              <mxPoint x="130" y="920" />
              <mxPoint x="100" y="990" />
              <mxPoint x="20" y="1010" />
            </Array>
          </mxGeometry>
        </mxCell>
        <mxCell id="X4f5I5SqVCt4vAeTWYcf-52" value="反向代理" style="edgeLabel;html=1;align=center;verticalAlign=middle;resizable=0;points=[];fontColor=#FF33FF;" vertex="1" connectable="0" parent="X4f5I5SqVCt4vAeTWYcf-49">
          <mxGeometry x="0.8185" y="-1" relative="1" as="geometry">
            <mxPoint x="402" y="-80" as="offset" />
          </mxGeometry>
        </mxCell>
        <mxCell id="X4f5I5SqVCt4vAeTWYcf-53" value="动态返回" style="edgeLabel;html=1;align=center;verticalAlign=middle;resizable=0;points=[];fontColor=#FF33FF;labelBorderColor=#00F5F5;labelBackgroundColor=#66FFB3;" vertex="1" connectable="0" parent="X4f5I5SqVCt4vAeTWYcf-49">
          <mxGeometry x="0.307" relative="1" as="geometry">
            <mxPoint x="-94" y="-1" as="offset" />
          </mxGeometry>
        </mxCell>
      </root>
    </mxGraphModel>
  </diagram>
</mxfile>
